<?xml version="1.0" encoding="UTF-8" standalone="no"?>
<svg width="80050px" height="80050px" viewBox="0 0 80050 80050" version="1.1" xmlns="http://www.w3.org/2000/svg" xmlns:xlink="http://www.w3.org/1999/xlink" xmlns:sketch="http://www.bohemiancoding.com/sketch/ns">
    <!-- Generator: Sketch 3.4 (15575) - http://www.bohemiancoding.com/sketch -->
    <title>Logo - CocoaHeads BR</title>
    <desc>Created with Sketch.</desc>
    <defs></defs>
    <g id="Page-1" stroke="none" stroke-width="1" fill="none" fill-rule="evenodd" sketch:type="MSPage">
        <g id="Logo" sketch:type="MSLayerGroup" transform="translate(25.000000, 25.000000)">
            <g id=".br" transform="translate(54050.000000, 63950.000000) scale(1, -1) translate(-54050.000000, -63950.000000) translate(46000.000000, 59200.000000)" fill="#F0D52F" sketch:type="MSShapeGroup">
                <path d="M13382.9712,5654.34342 C13815.4349,6635.26416 14968.2714,7282.90372 16027.3607,7025.04723 C16025.3604,6441.37207 16027.3607,5857.29714 16026.6939,5273.8885 C15374.1978,5401.151 14609.6852,5395.15434 14088.4084,4924.48296 C13610.8715,4509.91369 13502.9889,3842.01873 13480.9857,3243.68507 C13476.3183,2224.25243 13480.3189,1203.75372 13479.1187,183.921302 C12839.6912,183.388265 12200.5304,184.720857 11561.903,183.388265 C11555.2354,2421.20948 11560.5695,4659.56373 11559.236,6897.91798 L13390.3056,6897.91798 C13387.5052,6483.34871 13397.3733,6068.64618 13382.9712,5654.34342" id="path62"></path>
                <path d="M8381.32794,2329.63378 C8187.29937,1903.60422 7805.5098,1531.67788 7330.10646,1452.52193 C6812.43022,1332.98846 6234.21173,1522.483 5896.42865,1936.11946 C5543.30997,2374.40886 5418.89165,2954.48602 5419.55841,3506.04572 C5411.42388,4020.82589 5498.90343,4557.86033 5782.41185,4996.94929 C5965.23878,5289.45317 6255.41485,5511.72946 6586.53028,5610.34125 C7014.72668,5731.34057 7508.79944,5677.23735 7870.58606,5404.45583 C8287.98086,5099.95863 8498.41185,4590.90861 8576.02328,4094.25169 C8660.30236,3504.04683 8625.09718,2880.1274 8381.32794,2329.63378 M10500.5734,4275.21764 C10391.8907,5130.7415 10009.7011,5987.73121 9316.13228,6525.69847 C8674.03772,7035.54805 7795.50833,7195.45905 7002.1915,7017.15829 C6407.17053,6908.81858 5831.35239,6605.92049 5485.03472,6098.86936 C5490.23549,7212.38297 5481.7009,8325.89658 5489.56873,9439.54345 C4846.27398,9448.60507 4202.57918,9441.54234 3559.28444,9442.74167 C3560.61797,6357.39214 3558.61768,3270.97654 3560.61797,185.49376 C4166.84059,182.428799 4772.92985,184.694205 5379.01911,183.494873 C5379.01911,470.80164 5378.35235,756.509297 5381.15276,1042.61673 C5590.91698,687.347788 5910.29735,392.445249 6303.02186,251.323789 C6838.5674,56.0991077 7424.52036,-20.6581733 7991.93726,43.1729684 C8839.79546,130.057946 9611.50912,665.226766 10027.5704,1402.81626 C10535.6452,2263.27071 10606.589,3302.29245 10500.5734,4275.21764" id="path66"></path>
                <path d="M62.7828313,2197.93374 L2178.5611,2197.93374 L2178.5611,183.987932 C1473.65728,183.454895 769.553587,184.787487 65.4498907,183.454895 C59.4490069,855.214363 64.116361,1526.44079 62.7828313,2197.93374" id="path70"></path>
            </g>
            <g id="Face" transform="translate(40050.000000, 39007.220330) scale(1, -1) translate(-40050.000000, -39007.220330) translate(9500.000000, 11307.220330)" fill="#FFFFFF" sketch:type="MSShapeGroup">
                <path d="M31964.3206,10305.7303 C31067.922,9724.05404 30032.0361,9395.83671 28986.1487,9209.67365 C27463.5244,8934.89324 25905.5617,8954.48234 24367.3351,9055.09301 C23483.605,9131.31726 22583.3391,9173.82693 21736.1476,9459.00155 C20636.7857,9805.74191 19577.8298,10459.2449 19001.2115,11485.3405 C18708.6351,11949.3489 18557.6795,12481.9858 18438.0619,13012.6238 C23782.7157,13125.7608 29131.2367,13085.1168 34474.4236,12919.8754 C33831.7957,11887.9164 32996.3393,10959.7663 31964.3206,10305.7303 M36761.4271,14818.8186 C36407.375,15033.6323 35974.2445,14982.8606 35578.3196,15003.116 C30448.0973,15179.8177 25313.0744,15253.51 20180.3185,15169.4234 C19192.573,15143.4379 18203.6274,15148.102 17215.8819,15103.9932 C16667.2678,15064.815 16268.1423,14542.7056 16257.6074,14014.0664 C16177.3289,12269.8372 16856.0956,10497.0905 18084.0098,9252.98288 C18879.5936,8451.16246 19876.5404,7865.2219 20938.5635,7489.83082 C22178.3461,7067.266 23499.2073,6997.70471 24797.1318,6936.80527 C26455.5093,6878.70428 28133.7565,6882.70205 29764.9301,7222.77945 C31608.1348,7598.83682 33380.9293,8441.43454 34725.3939,9772.42712 C35680.868,10712.304 36405.508,11863.2635 36973.1916,13071.5243 C37073.2064,13292.6013 37191.8905,13511.0131 37227.0957,13754.0778 C37309.9079,14160.918 37120.5467,14607.3363 36761.4271,14818.8186" id="path58"></path>
                <path d="M23569.7243,28097.8548 C24385.5778,28338.7874 25172.7604,27319.7545 24744.2973,26594.6914 C24074.5987,25655.2143 23813.3602,24508.2526 23591.3275,23396.6046 C23424.1029,22606.9108 23337.2901,21799.3602 23343.1576,20991.9429 C23365.8276,20616.1521 23375.6957,20150.0115 23745.3502,19935.1977 C24234.6222,19649.8898 24841.645,19686.4029 25380.391,19785.6809 C26521.7591,20036.3414 27617.6538,20565.9134 28458.4443,21385.4573 C28632.0699,21557.8946 28864.1041,21678.8939 29111.7405,21688.6219 C29750.5013,21723.8023 30353.2567,21103.6141 30263.1101,20462.6375 C30234.5726,20206.7799 30078.4162,19988.6347 29892.9222,19819.662 C28923.4461,18901.7729 27734.071,18210.5576 26446.548,17851.8239 C25318.3819,17557.9874 24072.065,17481.6299 22978.5706,17948.8366 C22167.2511,18289.5803 21555.2943,19032.3669 21343.6631,19881.6275 C21037.218,21059.1056 21239.6478,22287.8883 21446.2116,23463.9005 C21706.6499,24839.8014 21997.4928,26259.9444 22770.1399,27453.68 C22951.0999,27751.2477 23221.6731,28016.167 23569.7243,28097.8548" id="path54"></path>
                <path d="M21727.133,55281.8057 C21924.8954,55360.1621 22113.7232,55224.904 22303.8846,55187.1917 C23320.8343,54916.2758 24216.4329,54249.0471 24791.9843,53370.6027 C25767.1946,51891.4259 25947.3545,49965.8309 25431.9452,48289.0308 C24910.0017,46675.7953 23883.8506,45258.1843 23520.7304,43588.98 C23428.0501,43024.8939 23602.3425,42448.015 23911.9881,41976.8105 C24258.8391,41446.0393 24726.508,41011.2146 25188.4427,40582.3866 C25375.8036,40411.4151 25530.093,40181.6763 25542.4949,39921.2879 C25598.6365,39191.2941 24785.45,38550.4508 24088.414,38782.1885 C23740.8962,38888.6626 23513.5294,39188.7622 23255.4914,39424.3644 C22441.6382,40238.4447 21695.6617,41192.8469 21418.6875,42331.1467 C21240.3946,43033.5557 21328.6743,43770.4789 21515.5018,44461.1612 C21885.1562,45813.7418 22646.0683,47010.1426 23133.3401,48317.5483 C23575.5385,49349.6405 23665.1517,50553.2374 23288.2962,51618.6444 C23094.1343,52188.3274 22684.7407,52692.9798 22128.6588,52940.9751 C21782.6078,53124.473 21337.7423,53110.7473 21056.7676,53412.3128 C20705.3825,53773.1786 20724.1852,54366.8482 20990.2244,54771.4231 C21151.5815,55039.5405 21435.6234,55193.0551 21727.133,55281.8057" id="path26"></path>
                <path d="M11432.4568,55099.747 C11629.6859,55179.3027 11850.5184,55203.5559 12058.149,55152.6509 C13055.4958,54938.5034 13962.1627,54348.4318 14575.5864,53535.0179 C15674.9483,52074.8971 15927.1188,50085.2045 15437.8467,48348.3045 C14933.6391,46675.2356 13859.0809,45224.1766 13482.2254,43506.8657 C13398.613,42981.2915 13537.8335,42442.2582 13811.3405,41990.9094 C14139.2555,41447.3452 14604.3906,41006.7904 15064.8584,40576.7631 C15278.4899,40390.6 15479.7195,40155.5308 15503.323,39861.1613 C15579.6009,39118.3747 14748.8119,38457.809 14041.241,38697.409 C13747.4644,38789.3578 13541.5674,39028.2915 13325.4023,39232.5778 C12395.7987,40137.9406 11534.2051,41229.8662 11320.1736,42544.6012 C11161.2169,43683.7006 11561.6758,44805.0765 12016.4095,45831.8384 C12373.6621,46628.8615 12783.8558,47402.4309 13090.9677,48221.575 C13495.8274,49150.3914 13594.5086,50213.7996 13354.0732,51198.1851 C13192.7161,51881.0051 12779.9886,52536.3736 12126.159,52837.8059 C11763.5722,53042.2255 11284.1683,53016.7729 10997.3261,53350.4539 C10522.9895,53883.6238 10785.6949,54832.1626 11432.4568,55099.747" id="path30"></path>
                <path d="M32258.6306,54795.5563 C32399.8514,54838.7323 32550.6737,54848.4602 32697.0952,54827.5385 C33844.9976,54607.5276 34873.6824,53884.3301 35500.7081,52901.9435 C36466.7171,51401.1788 36636.7421,49458.1268 36086.3944,47774.5305 C35646.3296,46472.8549 34897.8193,45302.5729 34444.5526,44006.0945 C34264.2594,43476.1228 34081.1657,42905.6403 34241.3226,42346.3515 C34479.7578,41413.5374 35234.8023,40754.171 35907.8347,40119.7241 C36195.6105,39861.2013 36317.8951,39425.7103 36158.405,39065.5108 C35923.1703,38424.0012 35052.6421,38067.9327 34479.091,38498.2265 C33937.6779,38955.7053 33446.939,39478.6142 33019.0093,40044.5659 C32438.9239,40819.468 31994.8585,41748.2844 32004.7266,42734.0025 C32015.9282,43717.7216 32361.8458,44658.1316 32761.7714,45544.0385 C33121.0243,46339.0627 33527.2175,47113.2985 33832.4624,47931.7763 C34198.9164,48787.5667 34292.2635,49752.2298 34120.9049,50665.5882 C33977.5505,51391.9839 33595.2275,52125.8421 32905.6593,52465.12 C32524.6698,52697.3907 32006.0601,52663.5429 31703.4822,53024.0089 C31218.3441,53593.1588 31550.2597,54590.6037 32258.6306,54795.5563" id="path34"></path>
                <path d="M23834.3366,36049.0829 C25572.4593,36079.1995 27314.7159,36016.4344 29042.437,35819.3441 C29471.5668,35788.0282 29918.8327,35557.6231 30081.6567,35139.8556 C30302.3559,34593.3598 29973.1074,33921.7336 29426.4935,33725.8426 C29217.3961,33656.148 28995.3634,33704.5211 28782.9321,33723.1774 C27157.0927,33900.2788 25519.5181,33961.4448 23885.1441,33934.9262 C22162.7571,33889.2183 20443.4372,33750.6288 18730.785,33571.9282 C18221.1099,33503.9661 17704.5005,33469.5852 17204.8269,33346.587 C16937.5876,33252.6393 16633.2761,33180.2796 16366.1701,33314.7381 C15736.4774,33621.5007 15600.4573,34568.5736 16074.7938,35066.6963 C16296.2931,35320.5551 16635.143,35413.9697 16955.4569,35463.5421 C19234.3258,35792.559 21533.0644,35984.5855 23834.3366,36049.0829" id="path38"></path>
                <path d="M36157.1248,35497.4433 C37675.3484,35713.0566 39219.5758,35628.0373 40734.0655,35430.947 C42443.9173,35194.8117 44134.9664,34734.4013 45676.9268,33949.7713 C46690.2761,33428.9945 47640.1493,32757.3683 48388.3928,31892.383 C48966.6113,31229.2854 49426.4124,30429.5971 49548.1636,29547.0216 C49660.9802,28848.4771 49510.0247,28099.8271 49090.4962,27524.1475 C48574.8203,26808.679 47813.1081,26304.1598 47000.9885,25979.807 C45917.2289,25543.6497 44751.9906,25369.48 43598.6207,25238.886 C43282.5742,21852.9038 43270.7058,18439.7367 43544.8795,15050.1565 C43709.1704,13198.6536 43937.0706,11354.0802 44184.307,9512.705 C44238.0482,9178.35774 44127.2319,8820.8234 43879.4621,8586.42052 C43553.5474,8254.20541 43000.9327,8185.57694 42603.6742,8428.37514 C42352.9706,8576.42608 42164.9429,8829.35198 42104.134,9114.5266 C41825.8263,11241.2097 41550.1857,13370.5579 41388.5619,15510.9667 C41157.4612,18692.5293 41166.1292,21894.6139 41464.0397,25071.6457 C39627.1025,24994.7552 37782.8309,25081.5069 35961.7627,25335.3656 C34724.1137,25513.6664 33489.3986,25750.6012 32297.223,26136.5197 C31142.9197,26520.0396 30009.9528,27075.5971 29156.0937,27960.8377 C28509.8652,28636.4617 28082.0689,29574.473 28188.6179,30521.6792 C28274.2305,31343.3552 28792.1735,32051.6277 29407.4641,32571.8715 C30289.4606,33306.1295 31394.5567,33706.3068 32497.7859,33972.0256 C32871.3075,34074.6351 33296.7035,33951.6369 33544.34,33650.3379 C33865.0539,33276.9458 33949.8664,32676.4799 33639.0206,32271.5053 C33462.0612,32037.2357 33172.0185,31936.7583 32894.3776,31882.5218 C32143.2003,31699.557 31388.0224,31437.9692 30777.9326,30949.1746 C30517.4942,30730.363 30225.9846,30430.7964 30297.0618,30058.8701 C30389.2087,29702.9349 30659.7818,29433.4848 30932.7554,29203.746 C31646.3271,28646.8559 32496.4523,28298.783 33358.1792,28043.5917 C34881.8703,27579.7165 36469.9709,27373.9644 38053.6708,27237.6402 C39663.6412,27114.7753 41284.0132,27103.1817 42891.7166,27266.1577 C43940.9378,27382.493 44993.8929,27537.8731 45997.9074,27873.2865 C46361.1609,27977.7617 46692.9431,28168.3223 47002.9888,28379.8046 C47246.0912,28562.7694 47499.0618,28825.0235 47462.1231,29154.0403 C47459.1893,29548.8873 47232.3559,29888.9647 47020.8581,30204.3891 C46364.3614,31069.2411 45458.2279,31716.7474 44477.8169,32167.8297 C43438.4638,32646.2301 42327.5002,32946.5963 41209.8689,33178.334 C39642.1714,33490.8267 38023.9331,33601.2986 36434.0989,33404.2083 C36006.1692,33342.909 35521.6979,33520.277 35309.8,33913.9246 C35039.4935,34368.8714 35193.7829,35001.4527 35609.3108,35315.278 C35766.0005,35436.8104 35965.6299,35472.124 36157.1248,35497.4433" id="path42"></path>
                <path d="M51306.3559,32818.5875 C52381.0475,33428.2482 53608.4283,33798.5754 54851.0113,33777.5205 C56194.5425,33764.9941 57536.8735,33285.9274 58553.1565,32399.4874 C59920.4245,31224.0083 60700.8061,29486.3088 60968.3122,27727.1545 C61018.5863,27509.6755 60992.3157,27276.7385 61066.5933,27064.4566 C61093.664,26565.9341 61131.4029,26052.753 61045.9236,25559.9606 C60935.374,24424.859 60637.0634,23296.1539 60068.0463,22302.1737 C59198.4515,20818.8659 57843.0519,19673.3701 56362.3005,18828.2405 C53707.7762,17318.9471 50694.2657,16662.2459 47854.9142,15602.3025 C47209.6192,15330.1873 46443.9064,15946.1112 46470.177,16620.4026 C46460.3089,17104.2666 46851.4331,17502.1785 47288.5642,17649.8296 C49244.8523,18373.8267 51277.1516,18882.4769 53206.1023,19682.565 C54682.8532,20309.8159 56166.2716,21033.1467 57318.708,22175.4443 C57971.8709,22826.9483 58486.0799,23630.3679 58730.7827,24524.6701 C59079.7674,25777.8394 59060.9646,27129.0873 58690.2433,28375.9934 C58455.4088,29171.6839 58041.0811,29924.3316 57436.8588,30500.0112 C56847.1719,31083.6864 56076.2584,31497.4561 55249.2032,31606.4621 C54251.0562,31755.1794 53233.4397,31468.8054 52367.1788,30978.5449 C52117.142,30825.6967 51804.9627,30769.4613 51523.4545,30860.8771 C50984.4418,31043.3089 50634.5236,31671.7591 50790.4132,32223.1856 C50868.2914,32484.5068 51071.2546,32689.8592 51306.3559,32818.5875" id="path46"></path>
                <path d="M9351.28364,32721.3217 C9504.10615,33137.8898 9940.30372,33388.5503 10368.9002,33416.668 C11857.5194,33524.2081 13376.4098,33441.1877 14815.9551,33027.418 C16118.547,32646.8298 17353.7955,31917.2358 18182.7176,30827.0426 C18782.9394,30042.4126 19081.5167,29005.1232 18864.018,28028.7333 C18688.2587,27108.179 18087.9037,26322.3496 17354.9957,25762.2614 C16358.1822,24994.6885 15166.14,24532.5458 13968.7637,24178.7427 C12830.8628,23848.5264 11659.757,23619.1874 10475.4492,23553.6239 C11177.686,20512.9162 11483.8644,17388.7883 11485.1979,14270.5237 C11489.1985,10951.9706 11155.5494,7639.94727 10620.4039,4366.30254 C15934.9199,2630.06884 21570.8166,1957.2433 27150.0383,2171.6573 C29515.9867,2257.87598 31871.0002,2531.45706 34208.0111,2902.85036 C34471.7833,2940.5627 34722.0868,3083.15001 34996.3938,3032.24501 C35583.547,2979.34112 36044.9483,2381.54049 35944.2668,1799.06467 C35872.2562,1248.30452 35339.7778,837.599766 34790.4969,867.44982 C32198.1151,446.617366 29582.5299,143.186239 26955.3429,58.0336309 C26240.1709,-19.5232051 25518.198,9.12751609 24799.6921,0.732188486 C24277.882,12.4589953 23752.7379,-12.9935059 23233.3281,53.6360783 C20898.0509,129.327286 18574.642,406.772875 16267.5022,765.773074 C13836.2108,1162.61888 11413.9874,1720.17524 9135.65189,2673.51133 C8803.20293,2807.03702 8503.42544,3070.75691 8415.94589,3428.29126 C8322.46546,3833.79891 8472.62091,4238.507 8521.6948,4638.55103 C9489.17062,10418.6675 9789.61487,16393.3423 8604.507,22165.7297 C8520.89468,22640.7986 8368.87229,23103.0747 8320.59852,23584.8065 C6722.7632,23740.1867 5109.19223,23929.4148 3586.03457,24459.2532 C2543.48103,24834.6443 1518.53008,25381.1401 805.225027,26249.9899 C324.620913,26825.1365 46.8466708,27559.3945 1.10660114,28304.18 C118.723923,29536.694 828.695151,30635.6824 1722.42677,31461.4895 C2867.3954,32505.8416 4357.34816,33234.5027 5924.5123,33283.5421 C6218.42225,33295.1356 6536.60245,33259.822 6770.37021,33064.5973 C7310.5831,32638.4344 7304.71557,31673.6381 6708.36108,31300.2459 C6398.04871,31097.1589 6013.32538,31191.3731 5667.67448,31134.6047 C4811.41504,30981.0902 4025.56597,30557.4593 3344.79904,30026.688 C2842.59175,29597.327 2338.2508,29092.0082 2184.09477,28426.2454 C2072.47833,27999.9493 2351.45275,27597.7731 2665.499,27338.8506 C3379.60417,26763.0377 4272.53567,26482.2606 5144.53076,26245.3258 C6696.49266,25851.012 8300.32887,25631.6674 9903.2316,25663.3831 C11239.6951,25682.5724 12561.0897,25951.7559 13832.877,26351.7999 C14578.1868,26592.5992 15300.0264,26918.9509 15943.5879,27368.7006 C16299.5069,27619.4944 16613.5532,27955.041 16767.0425,28367.6114 C16894.5279,28859.6042 16640.4905,29348.6654 16363.5164,29739.6478 C15874.9111,30345.977 15149.2042,30710.9738 14414.296,30928.1863 C13101.3026,31307.5751 11716.432,31410.5845 10357.8319,31293.7162 C9644.52683,31228.6857 9086.71135,32077.6799 9351.28364,32721.3217" id="path50"></path>
            </g>
        </g>
    </g>
</svg>